<svg width="16" height="18" viewBox="0 0 16 18" fill="none" xmlns="http://www.w3.org/2000/svg">
<path fill-rule="evenodd" clip-rule="evenodd" d="M8.0001 5.48335C6.97837 5.48335 6.1501 6.31162 6.1501 7.33335C6.1501 8.35508 6.97837 9.18335 8.0001 9.18335C9.02182 9.18335 9.8501 8.35508 9.8501 7.33335C9.8501 6.31162 9.02182 5.48335 8.0001 5.48335ZM4.8501 7.33335C4.8501 5.59365 6.2604 4.18335 8.0001 4.18335C9.73979 4.18335 11.1501 5.59365 11.1501 7.33335C11.1501 9.07305 9.73979 10.4834 8.0001 10.4834C6.2604 10.4834 4.8501 9.07305 4.8501 7.33335Z" fill="#3F4E65"/>
<path fill-rule="evenodd" clip-rule="evenodd" d="M2.82635 2.1596C4.19849 0.787463 6.05951 0.0166016 8.00002 0.0166016C9.94052 0.0166016 11.8015 0.787463 13.1737 2.1596C14.5458 3.53175 15.3167 5.39277 15.3167 7.33327C15.3167 8.1675 15.2281 8.89305 15.0018 9.57591C14.7745 10.2617 14.4189 10.8721 13.9239 11.4898C13.9206 11.4939 13.9173 11.4979 13.9139 11.5019C13.9119 11.5043 13.9099 11.5066 13.9079 11.509L8.49121 17.759C8.36775 17.9014 8.18853 17.9833 8.00002 17.9833C7.8115 17.9833 7.63228 17.9014 7.50882 17.759L2.09215 11.509C2.08669 11.5027 2.08136 11.4963 2.07615 11.4898C1.58111 10.8721 1.22555 10.2617 0.998237 9.57591C0.771886 8.89305 0.68335 8.1675 0.68335 7.33327C0.68335 5.39277 1.45421 3.53175 2.82635 2.1596ZM8.00002 1.3166C6.4043 1.3166 4.87393 1.9505 3.74559 3.07884C2.61725 4.20719 1.98335 5.73755 1.98335 7.33327C1.98335 8.0757 2.06231 8.65432 2.23221 9.16688C2.40012 9.67343 2.66731 10.147 3.0829 10.6672L8.00002 16.3408L12.9171 10.6672C13.3327 10.147 13.5999 9.67343 13.7678 9.16688C13.9377 8.65432 14.0167 8.0757 14.0167 7.33327C14.0167 5.73755 13.3828 4.20719 12.2544 3.07884C11.1261 1.9505 9.59574 1.3166 8.00002 1.3166Z" fill="#3F4E65"/>
</svg>
