<svg width="21" height="21" viewBox="0 0 21 21" fill="none" xmlns="http://www.w3.org/2000/svg">
<path d="M20.1963 5.32422L15.6743 0.802215C15.6118 0.739686 15.5376 0.690083 15.4559 0.656241C15.3742 0.622399 15.2867 0.60498 15.1983 0.60498C15.1099 0.60498 15.0223 0.622399 14.9407 0.656241C14.859 0.690083 14.7848 0.739686 14.7223 0.802215L2.34605 13.1782L2.3733 13.2055L2.33055 13.194L0.637545 19.512L0.638545 19.5122C0.598783 19.6303 0.592739 19.7572 0.621091 19.8785C0.649443 19.9999 0.711068 20.1109 0.799045 20.1992C0.896536 20.2965 1.02159 20.3614 1.15724 20.3851C1.29289 20.4089 1.43256 20.3903 1.5573 20.332L1.5578 20.3342L7.81455 18.6577L7.81055 18.643L7.82005 18.6525L20.1963 6.27622C20.2588 6.21372 20.3084 6.13951 20.3423 6.05784C20.3761 5.97616 20.3935 5.88862 20.3935 5.80022C20.3935 5.71181 20.3761 5.62427 20.3423 5.54259C20.3084 5.46092 20.2588 5.38671 20.1963 5.32422ZM2.6968 18.2867L3.7023 14.5345L6.4493 17.2815L2.6968 18.2867Z" fill="white"/>
</svg>
