<svg width="16" height="16" viewBox="0 0 16 16" fill="none" xmlns="http://www.w3.org/2000/svg">
<path fill-rule="evenodd" clip-rule="evenodd" d="M7.5001 1.6501C5.94858 1.6501 4.46061 2.26644 3.36352 3.36352C2.26644 4.46061 1.6501 5.94858 1.6501 7.5001C1.6501 9.05161 2.26644 10.5396 3.36352 11.6367C4.46061 12.7338 5.94858 13.3501 7.5001 13.3501C9.05161 13.3501 10.5396 12.7338 11.6367 11.6367C12.7338 10.5396 13.3501 9.05161 13.3501 7.5001C13.3501 5.94858 12.7338 4.46061 11.6367 3.36352C10.5396 2.26644 9.05161 1.6501 7.5001 1.6501ZM2.44428 2.44428C3.78517 1.1034 5.6038 0.350098 7.5001 0.350098C9.3964 0.350098 11.215 1.1034 12.5559 2.44428C13.8968 3.78517 14.6501 5.6038 14.6501 7.5001C14.6501 9.17723 14.0609 10.7936 12.997 12.0725L15.9895 15.0703L15.0695 15.9887L12.0783 12.9922C10.7985 14.0591 9.17977 14.6501 7.5001 14.6501C5.6038 14.6501 3.78517 13.8968 2.44428 12.5559C1.1034 11.215 0.350098 9.3964 0.350098 7.5001C0.350098 5.6038 1.1034 3.78517 2.44428 2.44428Z" fill="white"/>
</svg>
