<svg width="23" height="20" viewBox="0 0 23 20" fill="none" xmlns="http://www.w3.org/2000/svg">
<path d="M22.0216 0.673951L18.5386 18.2345C18.5386 18.2345 18.0515 19.4523 16.712 18.8678L8.67461 12.7058L5.75204 11.2932L0.832256 9.63694C0.832256 9.63694 0.0772402 9.36912 0.00411519 8.78458C-0.0690098 8.20004 0.856631 7.88347 0.856631 7.88347L20.4139 0.211437C20.4139 0.211437 22.0214 -0.494829 22.0214 0.674257" fill="white"/>
<path d="M9.02371 17.5799C9.02371 17.5799 8.7891 17.558 8.4966 16.6324C8.20456 15.7069 6.71875 10.8358 6.71875 10.8358L18.5312 3.33442C18.5312 3.33442 19.2132 2.92035 19.1888 3.33442C19.1888 3.33442 19.3106 3.40755 18.9451 3.74849C18.5799 4.08959 9.66584 12.1024 9.66584 12.1024" fill="#D2E5F1"/>
<path d="M12.7233 14.6112L9.54433 17.5097C9.54433 17.5097 9.29571 17.6983 9.02393 17.5801L9.63269 12.1963" fill="#B5CFE4"/>
</svg>
